<svg width="765" height="509" viewBox="0 0 765 509" fill="none" xmlns="http://www.w3.org/2000/svg">
<path d="M96.9933 495.65L264.677 327.61C305.174 287.011 305.123 221.281 264.576 180.733L96.8915 13.0494C79.4923 -4.34982 51.3075 -4.34982 33.9083 13.0494L13.1513 33.7555C-4.24795 51.1548 -4.24795 79.3904 13.1513 96.7897L139.016 222.654C156.415 240.054 156.415 268.238 139.016 285.638L13.0495 411.604C-4.29882 428.953 -4.3497 457.086 12.8969 474.486L33.8574 495.548C51.2567 513.1 79.5432 513.1 96.9933 495.65Z" fill="#E9E9E9"/>
<path d="M731.87 364.347L559.76 318.255C536.001 311.844 521.909 287.424 528.268 263.666L574.361 91.7591C580.72 68.0005 566.628 43.5804 542.869 37.1702L514.532 29.5898C490.773 23.2304 466.353 37.3228 459.943 61.0815L398.588 290.172C383.732 345.574 416.597 402.504 471.949 417.41L701.192 479.121C725.002 485.532 749.523 471.337 755.832 447.477L763.412 418.733C769.67 395.025 755.577 370.707 731.87 364.347Z" fill="#E9E9E9"/>
</svg>
